<svg width="155" height="18" viewBox="0 0 155 18" fill="none" xmlns="http://www.w3.org/2000/svg">
<mask id="mask0_721_386" style="mask-type:alpha" maskUnits="userSpaceOnUse" x="84" y="0" width="30" height="15">
<path d="M97.0692 3.52985H101.03L105.595 10.9825L109.651 0.735596H113.75L107.702 14.9465H104.112L99.0614 6.50686H99.0137L93.9915 14.9465H90.3769L84.3525 0.735596H88.4284L92.5082 10.9825L97.0692 3.52985Z" fill="white"/>
</mask>
<g mask="url(#mask0_721_386)">
<rect x="57.5413" y="-0.675537" width="99.484" height="16.9334" fill="white"/>
</g>
<mask id="mask1_721_386" style="mask-type:alpha" maskUnits="userSpaceOnUse" x="114" y="0" width="4" height="15">
<path d="M114.633 14.9465V0.735596H117.795V14.9424H114.633V14.9465Z" fill="white"/>
</mask>
<g mask="url(#mask1_721_386)">
<rect x="84.5233" y="-0.54541" width="73.2661" height="16.6514" fill="white"/>
</g>
<mask id="mask2_721_386" style="mask-type:alpha" maskUnits="userSpaceOnUse" x="138" y="0" width="17" height="15">
<path d="M154.203 0.90596V3.6799H145.677V6.57569H153.392V9.28871H145.677V12.1236H154.203V14.9178C148.898 14.9422 143.594 14.9666 138.285 14.995C138.866 14.8447 140.691 14.2924 142.055 12.481C143.423 10.6655 143.459 8.73636 143.463 8.02968C143.467 7.37579 143.443 5.26792 141.928 3.33062C140.607 1.64108 138.917 1.06029 138.289 0.881592C143.598 0.889715 148.902 0.897837 154.203 0.90596ZM144.902 2.02285C145.427 2.91636 146.493 4.98768 146.528 7.84285C146.564 10.8442 145.443 13.0252 144.922 13.9187" fill="white"/>
</mask>
<g mask="url(#mask2_721_386)">
<rect x="83.8401" y="-0.459961" width="74.547" height="16.6514" fill="white"/>
</g>
<mask id="mask3_721_386" style="mask-type:alpha" maskUnits="userSpaceOnUse" x="119" y="0" width="24" height="15">
<path d="M133.187 0.735596C139.152 0.735596 142.516 3.36333 142.516 7.83901V7.85931C142.516 12.3147 139.152 14.9424 133.187 14.9424H119.035V0.735596H133.187ZM122.884 11.9898H132.889C136.5 11.9898 138.241 10.4708 138.241 7.86337V7.84307C138.241 5.21533 136.496 3.67606 132.889 3.67606H122.884V11.9898Z" fill="white"/>
<path d="M138.401 2.30739C138.739 5.74741 139.077 9.18742 139.415 12.6315C135.732 13.3422 132.05 14.0489 128.368 14.7597C124.825 15.2552 121.54 13.9758 120.001 11.4374C119.21 10.1337 119.051 8.77722 119.047 7.83497V7.81467C119.047 6.87648 119.202 5.4956 120.013 4.17564C121.568 1.64944 124.873 0.398525 128.416 0.950877C131.748 1.40169 135.076 1.85251 138.401 2.30739ZM138.683 3.64359H128.678C125.067 3.64359 123.322 5.18693 123.322 7.81467V7.83497C123.322 10.4424 125.067 11.9614 128.674 11.9614H138.679V3.64359H138.683Z" fill="white"/>
</mask>
<g mask="url(#mask3_721_386)">
<rect x="82.6447" y="-0.54541" width="73.2661" height="16.6514" fill="white"/>
</g>
<path d="M1.02269 14.3865V4.0178H4.91094C5.70749 4.0178 6.37579 4.16631 6.91582 4.46333C7.45923 4.76035 7.86932 5.16875 8.14609 5.68854C8.42623 6.20495 8.5663 6.79223 8.5663 7.4504C8.5663 8.11532 8.42623 8.70598 8.14609 9.22239C7.86595 9.7388 7.45248 10.1455 6.9057 10.4425C6.35891 10.7362 5.68556 10.883 4.88563 10.883H2.30865V9.33884H4.63249C5.09827 9.33884 5.47967 9.25783 5.77669 9.09582C6.07371 8.93381 6.29309 8.71105 6.43485 8.42753C6.57999 8.14401 6.65256 7.8183 6.65256 7.4504C6.65256 7.0825 6.57999 6.75848 6.43485 6.47834C6.29309 6.1982 6.07202 5.98049 5.77162 5.82523C5.4746 5.6666 5.09152 5.58728 4.62236 5.58728H2.901V14.3865H1.02269ZM13.3975 14.5384C12.6381 14.5384 11.9799 14.3713 11.423 14.0371C10.8661 13.703 10.4341 13.2355 10.1269 12.6347C9.82315 12.0339 9.67127 11.3319 9.67127 10.5286C9.67127 9.7253 9.82315 9.02156 10.1269 8.4174C10.4341 7.81324 10.8661 7.34408 11.423 7.00994C11.9799 6.67579 12.6381 6.50872 13.3975 6.50872C14.1569 6.50872 14.8151 6.67579 15.372 7.00994C15.9289 7.34408 16.3593 7.81324 16.663 8.4174C16.9702 9.02156 17.1237 9.7253 17.1237 10.5286C17.1237 11.3319 16.9702 12.0339 16.663 12.6347C16.3593 13.2355 15.9289 13.703 15.372 14.0371C14.8151 14.3713 14.1569 14.5384 13.3975 14.5384ZM13.4076 13.0701C13.8194 13.0701 14.1637 12.9571 14.4404 12.7309C14.7172 12.5014 14.9231 12.1943 15.0581 11.8095C15.1965 11.4247 15.2657 10.9961 15.2657 10.5235C15.2657 10.0476 15.1965 9.61729 15.0581 9.23252C14.9231 8.84437 14.7172 8.53553 14.4404 8.30602C14.1637 8.0765 13.8194 7.96175 13.4076 7.96175C12.9857 7.96175 12.6347 8.0765 12.3546 8.30602C12.0778 8.53553 11.8702 8.84437 11.7318 9.23252C11.5968 9.61729 11.5293 10.0476 11.5293 10.5235C11.5293 10.9961 11.5968 11.4247 11.7318 11.8095C11.8702 12.1943 12.0778 12.5014 12.3546 12.7309C12.6347 12.9571 12.9857 13.0701 13.4076 13.0701ZM20.0615 14.3865L17.8642 6.60997H19.7324L21.0993 12.0778H21.1702L22.5676 6.60997H24.4155L25.8128 12.0474H25.8888L27.2355 6.60997H29.1087L26.9064 14.3865H24.9977L23.5396 9.13126H23.4333L21.9752 14.3865H20.0615ZM33.6083 14.5384C32.8286 14.5384 32.1553 14.3763 31.5882 14.0523C31.0246 13.7249 30.5909 13.2625 30.2871 12.6651C29.9833 12.0643 29.8314 11.3572 29.8314 10.5438C29.8314 9.74386 29.9833 9.04182 30.2871 8.43765C30.5942 7.83011 31.0229 7.35758 31.5731 7.02006C32.1232 6.67916 32.7696 6.50872 33.5121 6.50872C33.9914 6.50872 34.4437 6.58635 34.869 6.7416C35.2976 6.89349 35.6756 7.12976 36.003 7.4504C36.3338 7.77105 36.5937 8.17945 36.7827 8.67561C36.9717 9.16839 37.0662 9.75568 37.0662 10.4375V10.9994H30.6921V9.76411H35.3094C35.306 9.41309 35.2301 9.10088 35.0816 8.82749C34.9331 8.55072 34.7255 8.33302 34.4589 8.17439C34.1956 8.01575 33.8885 7.93643 33.5374 7.93643C33.1628 7.93643 32.8337 8.02756 32.5502 8.20982C32.2667 8.38871 32.0456 8.62498 31.887 8.91862C31.7317 9.20889 31.6524 9.52785 31.649 9.8755V10.9539C31.649 11.4062 31.7317 11.7943 31.8971 12.1183C32.0625 12.439 32.2937 12.6854 32.5907 12.8575C32.8877 13.0263 33.2354 13.1106 33.6336 13.1106C33.9003 13.1106 34.1416 13.0735 34.3576 12.9993C34.5736 12.9216 34.7609 12.8086 34.9196 12.6601C35.0782 12.5115 35.198 12.3276 35.279 12.1082L36.9903 12.3006C36.8823 12.7529 36.6764 13.1478 36.3726 13.4853C36.0722 13.8194 35.6874 14.0793 35.2183 14.265C34.7491 14.4472 34.2125 14.5384 33.6083 14.5384ZM38.6167 14.3865V6.60997H40.3938V7.90606H40.4748C40.6165 7.45715 40.8595 7.11119 41.2038 6.86818C41.5515 6.62178 41.9481 6.49859 42.3936 6.49859C42.4948 6.49859 42.6079 6.50365 42.7328 6.51378C42.8611 6.52053 42.9674 6.53234 43.0518 6.54922V8.23514C42.9741 8.20814 42.8509 8.18451 42.6822 8.16426C42.5168 8.14063 42.3565 8.12882 42.2012 8.12882C41.8671 8.12882 41.5667 8.20139 41.3 8.34652C41.0367 8.48828 40.8292 8.68573 40.6773 8.93887C40.5254 9.19201 40.4495 9.48397 40.4495 9.81474V14.3865H38.6167ZM47.3919 14.5384C46.6122 14.5384 45.9388 14.3763 45.3718 14.0523C44.8081 13.7249 44.3744 13.2625 44.0706 12.6651C43.7669 12.0643 43.615 11.3572 43.615 10.5438C43.615 9.74386 43.7669 9.04182 44.0706 8.43765C44.3778 7.83011 44.8064 7.35758 45.3566 7.02006C45.9068 6.67916 46.5531 6.50872 47.2957 6.50872C47.7749 6.50872 48.2272 6.58635 48.6525 6.7416C49.0812 6.89349 49.4592 7.12976 49.7866 7.4504C50.1173 7.77105 50.3772 8.17945 50.5663 8.67561C50.7553 9.16839 50.8498 9.75568 50.8498 10.4375V10.9994H44.4757V9.76411H49.093C49.0896 9.41309 49.0137 9.10088 48.8651 8.82749C48.7166 8.55072 48.5091 8.33302 48.2424 8.17439C47.9791 8.01575 47.672 7.93643 47.321 7.93643C46.9463 7.93643 46.6172 8.02756 46.3337 8.20982C46.0502 8.38871 45.8291 8.62498 45.6705 8.91862C45.5152 9.20889 45.4359 9.52785 45.4325 9.8755V10.9539C45.4325 11.4062 45.5152 11.7943 45.6806 12.1183C45.846 12.439 46.0772 12.6854 46.3742 12.8575C46.6712 13.0263 47.0189 13.1106 47.4172 13.1106C47.6838 13.1106 47.9251 13.0735 48.1412 12.9993C48.3572 12.9216 48.5445 12.8086 48.7031 12.6601C48.8618 12.5115 48.9816 12.3276 49.0626 12.1082L50.7738 12.3006C50.6658 12.7529 50.4599 13.1478 50.1562 13.4853C49.8558 13.8194 49.471 14.0793 49.0018 14.265C48.5327 14.4472 47.996 14.5384 47.3919 14.5384ZM55.2861 14.5232C54.6752 14.5232 54.1284 14.3662 53.6457 14.0523C53.1631 13.7384 52.7817 13.2828 52.5015 12.6854C52.2214 12.088 52.0813 11.3623 52.0813 10.5083C52.0813 9.64429 52.2231 8.91525 52.5066 8.32121C52.7935 7.72379 53.1799 7.2732 53.666 6.96943C54.152 6.66229 54.6937 6.50872 55.2911 6.50872C55.7468 6.50872 56.1214 6.58635 56.4151 6.7416C56.7087 6.89349 56.9416 7.07744 57.1138 7.29345C57.2859 7.50609 57.4192 7.70692 57.5137 7.89593H57.5897V4.0178H59.4275V14.3865H57.6251V13.1613H57.5137C57.4192 13.3503 57.2825 13.5511 57.1036 13.7637C56.9247 13.973 56.6885 14.1519 56.3948 14.3004C56.1012 14.4489 55.7316 14.5232 55.2861 14.5232ZM55.7974 13.0195C56.1856 13.0195 56.5163 12.9149 56.7897 12.7056C57.0631 12.493 57.2707 12.1976 57.4125 11.8196C57.5542 11.4416 57.6251 11.0011 57.6251 10.4982C57.6251 9.99532 57.5542 9.55822 57.4125 9.18695C57.2741 8.81568 57.0682 8.5271 56.7948 8.32121C56.5248 8.11532 56.1923 8.01237 55.7974 8.01237C55.389 8.01237 55.0481 8.11869 54.7747 8.33133C54.5013 8.54397 54.2954 8.83762 54.1571 9.21226C54.0187 9.58691 53.9495 10.0156 53.9495 10.4982C53.9495 10.9843 54.0187 11.418 54.1571 11.7994C54.2988 12.1774 54.5064 12.4761 54.7798 12.6955C55.0566 12.9115 55.3958 13.0195 55.7974 13.0195ZM64.9978 14.3865V4.0178H66.8306V7.89593H66.9065C67.001 7.70692 67.1344 7.50609 67.3065 7.29345C67.4786 7.07744 67.7115 6.89349 68.0052 6.7416C68.2988 6.58635 68.6735 6.50872 69.1291 6.50872C69.7299 6.50872 70.2716 6.66229 70.7543 6.96943C71.2403 7.2732 71.6251 7.72379 71.9086 8.32121C72.1955 8.91525 72.3389 9.64429 72.3389 10.5083C72.3389 11.3623 72.1989 12.088 71.9187 12.6854C71.6386 13.2828 71.2572 13.7384 70.7745 14.0523C70.2919 14.3662 69.7451 14.5232 69.1342 14.5232C68.6886 14.5232 68.3191 14.4489 68.0254 14.3004C67.7318 14.1519 67.4955 13.973 67.3166 13.7637C67.1411 13.5511 67.0044 13.3503 66.9065 13.1613H66.8002V14.3865H64.9978ZM66.7951 10.4982C66.7951 11.0011 66.866 11.4416 67.0078 11.8196C67.1529 12.1976 67.3605 12.493 67.6305 12.7056C67.9039 12.9149 68.2347 13.0195 68.6228 13.0195C69.0279 13.0195 69.3671 12.9115 69.6405 12.6955C69.9138 12.4761 70.1197 12.1774 70.2581 11.7994C70.3999 11.418 70.4708 10.9843 70.4708 10.4982C70.4708 10.0156 70.4016 9.58691 70.2632 9.21226C70.1248 8.83762 69.9189 8.54397 69.6455 8.33133C69.3721 8.11869 69.0312 8.01237 68.6228 8.01237C68.2313 8.01237 67.8988 8.11532 67.6254 8.32121C67.3521 8.5271 67.1445 8.81568 67.0027 9.18695C66.8643 9.55822 66.7951 9.99532 66.7951 10.4982ZM74.7716 17.3027C74.5219 17.3027 74.2907 17.2824 74.078 17.2419C73.8688 17.2048 73.7017 17.1609 73.5768 17.1103L74.0021 15.6826C74.2687 15.7602 74.5067 15.7973 74.7159 15.7939C74.9252 15.7906 75.1092 15.7247 75.2678 15.5965C75.4298 15.4716 75.5665 15.2623 75.6779 14.9687L75.8348 14.5485L73.0148 6.60997H74.959L76.7512 12.4829H76.8322L78.6295 6.60997H80.5787L77.4651 15.3282C77.3199 15.7399 77.1275 16.0926 76.8879 16.3863C76.6483 16.6833 76.3546 16.9095 76.007 17.0647C75.6627 17.2233 75.2509 17.3027 74.7716 17.3027Z" fill="white"/>
</svg>
